<svg width="57" height="57" viewBox="0 0 57 57" fill="none" xmlns="http://www.w3.org/2000/svg">
<g clip-path="url(#clip0_2132_538)">
<path d="M21.6123 25.0562H29.6873L56.9998 0H34.4373L21.6123 25.0562Z" fill="#BFBFBF"/>
<path d="M35.3875 25.0562H27.3125L0 0H22.5625L35.3875 25.0562Z" fill="#BFBFBF"/>
<path d="M28.5002 56.9999C41.4202 56.9999 51.8939 46.5262 51.8939 33.6062C51.8939 20.6861 41.4202 10.2124 28.5002 10.2124C15.5802 10.2124 5.10645 20.6861 5.10645 33.6062C5.10645 46.5262 15.5802 56.9999 28.5002 56.9999Z" fill="#B48154"/>
<path d="M28.5002 49.875C19.4752 49.875 12.2314 42.5125 12.2314 33.6062C12.2314 24.7 19.4752 17.2188 28.5002 17.2188C37.5252 17.2188 44.7689 24.5813 44.7689 33.4875C44.7689 42.3938 37.5252 49.875 28.5002 49.875Z" fill="#E5B489"/>
</g>
<defs>
<clipPath id="clip0_2132_538">
<rect width="57" height="57" fill="white"/>
</clipPath>
</defs>
</svg>
