<svg width="138" height="138" viewBox="0 0 138 138" fill="none" xmlns="http://www.w3.org/2000/svg">
<path d="M125.929 31.6969C117.149 22.8562 117.363 13.8 126.358 3.45C126.786 2.80312 127 1.94063 126.572 1.29375C126.358 0.43125 125.501 0 124.644 0H29.5605C19.9237 0 12 7.97812 12 17.6813V116.006C12 128.081 21.851 138 33.8436 138H124.858C125.929 138 127 137.138 127 135.844V33.6375V33.4219C126.786 32.775 126.572 32.1281 125.929 31.6969ZM98.5177 81.7219C98.5177 82.8 97.6611 83.8781 96.3761 83.8781H77.1024V114.928C77.1024 116.006 76.2458 117.084 74.9609 117.084H63.3966C62.3259 117.084 61.2551 116.222 61.2551 114.928V83.8781H41.9814C40.9106 83.8781 39.8399 83.0156 39.8399 81.7219V69.8625C39.8399 68.7844 40.6965 67.7063 41.9814 67.7063H61.2551V51.1031C61.2551 50.025 62.1117 48.9469 63.3966 48.9469H74.9609C76.0316 48.9469 77.1024 49.8094 77.1024 51.1031V67.7063H96.3761C97.4469 67.7063 98.5177 68.5688 98.5177 69.8625V81.7219ZM29.5605 31.2656C22.0652 31.2656 16.0689 25.2281 16.0689 17.6813C16.0689 10.1344 22.0652 4.09688 29.5605 4.09688H120.361C113.723 13.5844 113.508 22.6406 119.933 31.2656H29.5605Z" fill="black"/>
</svg>
