<svg width="452" height="94" viewBox="0 0 452 94" fill="none" xmlns="http://www.w3.org/2000/svg">
<path d="M104.312 71.345C103.714 71.345 103.231 71.276 102.863 71.138C102.495 71.046 102.311 70.862 102.311 70.586C102.311 70.034 103.07 69.62 104.588 69.344C106.336 69.022 107.67 68.493 108.59 67.757C109.51 67.021 109.97 65.825 109.97 64.169V33.119C109.97 31.463 109.625 30.244 108.935 29.462C108.245 28.68 107.049 28.22 105.347 28.082C104.565 27.99 103.99 27.829 103.622 27.599C103.254 27.323 103.07 27.024 103.07 26.702C103.07 26.426 103.254 26.242 103.622 26.15C103.99 26.012 104.473 25.943 105.071 25.943C106.313 25.943 107.279 25.943 107.969 25.943C108.659 25.943 109.303 25.966 109.901 26.012C110.545 26.012 111.327 26.012 112.247 26.012C113.121 26.012 113.88 25.989 114.524 25.943C115.168 25.851 115.881 25.782 116.663 25.736C117.491 25.69 118.572 25.667 119.906 25.667C125.288 25.667 129.29 26.449 131.912 28.013C134.58 29.531 135.914 32.176 135.914 35.948C135.914 37.512 135.638 38.892 135.086 40.088C134.58 41.238 134.074 42.066 133.568 42.572C132.832 43.308 132.165 43.883 131.567 44.297C130.969 44.665 130.095 45.079 128.945 45.539C128.761 45.585 128.669 45.7 128.669 45.884C128.669 46.022 128.761 46.137 128.945 46.229C130.003 46.551 131.084 46.965 132.188 47.471C133.338 47.977 134.396 48.644 135.362 49.472C136.374 50.254 137.179 51.312 137.777 52.646C138.421 53.934 138.743 55.59 138.743 57.614C138.743 60.144 138.329 62.145 137.501 63.617C136.719 65.089 135.776 66.216 134.672 66.998C133.568 67.78 132.533 68.424 131.567 68.93C130.141 69.666 128.485 70.241 126.599 70.655C124.713 71.069 122.459 71.276 119.837 71.276C119.239 71.276 118.342 71.23 117.146 71.138C115.95 71.046 114.662 71 113.282 71C112.086 71 111.074 71.023 110.246 71.069C109.418 71.115 108.544 71.161 107.624 71.207C106.75 71.299 105.646 71.345 104.312 71.345ZM120.803 68.447C122.827 68.447 124.713 67.987 126.461 67.067C128.209 66.147 129.612 64.905 130.67 63.341C131.728 61.731 132.257 59.937 132.257 57.959C132.257 56.165 131.958 54.693 131.36 53.543C130.762 52.347 130.072 51.381 129.29 50.645C128.508 49.909 127.795 49.38 127.151 49.058C126.553 48.69 125.61 48.322 124.322 47.954C123.034 47.54 121.355 47.333 119.285 47.333C117.813 47.333 116.778 47.632 116.18 48.23C115.628 48.828 115.352 49.357 115.352 49.817V63.548C115.352 65.48 115.812 66.791 116.732 67.481C117.698 68.125 119.055 68.447 120.803 68.447ZM118.526 45.401C119.768 45.401 121.102 45.263 122.528 44.987C124 44.711 125.449 44.182 126.875 43.4C127.381 43.124 128.025 42.457 128.807 41.399C129.589 40.341 129.98 38.823 129.98 36.845C129.98 35.511 129.727 34.154 129.221 32.774C128.715 31.348 127.749 30.152 126.323 29.186C124.897 28.22 122.758 27.737 119.906 27.737C118.02 27.737 116.778 27.99 116.18 28.496C115.628 29.002 115.352 29.784 115.352 30.842V42.848C115.352 44.044 115.743 44.78 116.525 45.056C117.307 45.286 117.974 45.401 118.526 45.401ZM142.463 71.207C142.049 71.207 141.704 71.138 141.428 71C141.198 70.908 141.083 70.724 141.083 70.448C141.083 70.08 141.244 69.827 141.566 69.689C141.934 69.551 142.302 69.436 142.67 69.344C143.636 69.114 144.372 68.838 144.878 68.516C145.384 68.148 145.637 67.55 145.637 66.722V51.749C145.637 50.507 145.407 49.403 144.947 48.437C144.533 47.471 143.728 46.896 142.532 46.712C142.302 46.666 142.118 46.574 141.98 46.436C141.888 46.298 141.842 46.091 141.842 45.815C141.842 45.309 142.049 45.033 142.463 44.987C144.303 44.573 145.821 44.021 147.017 43.331C148.213 42.595 149.11 41.997 149.708 41.537C150.122 41.215 150.444 41.054 150.674 41.054C150.95 41.054 151.088 41.169 151.088 41.399C151.088 41.767 151.019 42.503 150.881 43.607C150.789 44.665 150.697 45.861 150.605 47.195C150.513 48.483 150.467 49.656 150.467 50.714V66.722C150.467 67.504 150.72 68.079 151.226 68.447C151.778 68.815 152.514 69.114 153.434 69.344C153.802 69.436 154.147 69.551 154.469 69.689C154.837 69.827 155.021 70.08 155.021 70.448C155.021 70.954 154.561 71.207 153.641 71.207C152.767 71.207 152.054 71.161 151.502 71.069C150.996 71.023 150.49 70.977 149.984 70.931C149.524 70.885 148.88 70.862 148.052 70.862C147.27 70.862 146.626 70.885 146.12 70.931C145.614 70.977 145.108 71.023 144.602 71.069C144.096 71.161 143.383 71.207 142.463 71.207ZM147.983 35.396C147.017 35.396 146.189 35.074 145.499 34.43C144.855 33.74 144.533 32.912 144.533 31.946C144.533 30.934 144.855 30.106 145.499 29.462C146.189 28.772 147.017 28.427 147.983 28.427C148.995 28.427 149.823 28.772 150.467 29.462C151.157 30.106 151.502 30.934 151.502 31.946C151.502 32.912 151.157 33.74 150.467 34.43C149.823 35.074 148.995 35.396 147.983 35.396ZM172.141 71.966C171.129 71.966 170.117 71.874 169.105 71.69C168.093 71.506 167.127 71.299 166.207 71.069C165.195 70.793 164.298 70.54 163.516 70.31C162.78 70.08 162.297 69.965 162.067 69.965C161.791 69.965 161.515 70.057 161.239 70.241C161.009 70.425 160.779 70.632 160.549 70.862C160.319 71.092 160.112 71.207 159.928 71.207C159.744 71.207 159.537 71.138 159.307 71C159.077 70.816 158.962 70.609 158.962 70.379C158.962 69.965 159.031 69.252 159.169 68.24C159.353 67.228 159.445 66.285 159.445 65.411V31.946C159.445 30.75 159.146 29.715 158.548 28.841C157.95 27.967 157.191 27.323 156.271 26.909C156.087 26.817 155.88 26.702 155.65 26.564C155.466 26.38 155.374 26.15 155.374 25.874C155.374 25.644 155.466 25.483 155.65 25.391C155.834 25.299 156.018 25.23 156.202 25.184C156.8 25.046 157.605 24.793 158.617 24.425C159.675 24.057 160.664 23.689 161.584 23.321C162.504 22.953 163.125 22.7 163.447 22.562C163.723 22.424 163.93 22.355 164.068 22.355C164.16 22.355 164.252 22.401 164.344 22.493C164.436 22.585 164.482 22.7 164.482 22.838C164.482 23.022 164.436 23.804 164.344 25.184C164.298 26.518 164.275 28.151 164.275 30.083V44.228C164.275 45.102 164.321 45.7 164.413 46.022C164.505 46.298 164.666 46.459 164.896 46.505C166.322 45.309 167.978 44.343 169.864 43.607C171.75 42.825 173.452 42.434 174.97 42.434C177.316 42.434 179.409 43.032 181.249 44.228C183.135 45.424 184.63 47.057 185.734 49.127C186.838 51.151 187.39 53.451 187.39 56.027C187.39 59.155 186.746 61.938 185.458 64.376C184.17 66.768 182.376 68.631 180.076 69.965C177.822 71.299 175.177 71.966 172.141 71.966ZM173.728 69.827C175.476 69.827 176.971 69.298 178.213 68.24C179.501 67.136 180.49 65.664 181.18 63.824C181.87 61.938 182.215 59.845 182.215 57.545C182.215 55.751 181.87 53.911 181.18 52.025C180.536 50.139 179.501 48.552 178.075 47.264C176.695 45.976 174.901 45.332 172.693 45.332C170.853 45.332 169.243 45.631 167.863 46.229C166.483 46.827 165.287 47.586 164.275 48.506V61.892C164.275 63.502 164.712 64.905 165.586 66.101C166.506 67.297 167.679 68.217 169.105 68.861C170.577 69.505 172.118 69.827 173.728 69.827ZM189.391 71.207C189.161 71.207 188.862 71.161 188.494 71.069C188.172 71.023 188.011 70.862 188.011 70.586C188.011 70.218 188.172 69.965 188.494 69.827C188.862 69.643 189.23 69.482 189.598 69.344C190.288 69.114 190.955 68.861 191.599 68.585C192.243 68.263 192.565 67.642 192.565 66.722V31.946C192.565 30.612 192.312 29.508 191.806 28.634C191.346 27.714 190.541 27.139 189.391 26.909C189.023 26.817 188.839 26.518 188.839 26.012C188.839 25.552 189 25.276 189.322 25.184C190.518 24.908 191.553 24.632 192.427 24.356C193.301 24.034 194.106 23.712 194.842 23.39C195.624 23.068 196.383 22.769 197.119 22.493C197.303 22.401 197.441 22.355 197.533 22.355C197.625 22.355 197.694 22.424 197.74 22.562C197.832 22.654 197.878 22.746 197.878 22.838C197.878 23.252 197.786 24.149 197.602 25.529C197.464 26.863 197.395 29.094 197.395 32.222V66.722C197.395 67.642 197.717 68.263 198.361 68.585C199.005 68.861 199.672 69.114 200.362 69.344C200.73 69.482 201.075 69.643 201.397 69.827C201.765 69.965 201.949 70.218 201.949 70.586C201.949 70.862 201.765 71.023 201.397 71.069C201.075 71.161 200.799 71.207 200.569 71.207C199.695 71.207 198.982 71.161 198.43 71.069C197.924 71.023 197.418 70.977 196.912 70.931C196.452 70.885 195.808 70.862 194.98 70.862C194.198 70.862 193.554 70.885 193.048 70.931C192.542 70.977 192.036 71.023 191.53 71.069C191.024 71.161 190.311 71.207 189.391 71.207ZM215.903 72.035C213.373 72.035 211.165 71.414 209.279 70.172C207.393 68.93 205.921 67.182 204.863 64.928C203.805 62.628 203.276 59.983 203.276 56.993C203.276 54.325 203.874 51.91 205.07 49.748C206.312 47.54 207.945 45.769 209.969 44.435C211.993 43.101 214.201 42.434 216.593 42.434C218.433 42.434 220.066 42.802 221.492 43.538C222.918 44.274 224.022 45.309 224.804 46.643C225.632 47.931 226.046 49.426 226.046 51.128C226.046 52.554 225.356 53.267 223.976 53.267H209.417C208.773 53.267 208.313 53.451 208.037 53.819C207.807 54.141 207.692 54.808 207.692 55.82C207.692 58.028 208.175 60.052 209.141 61.892C210.107 63.686 211.395 65.135 213.005 66.239C214.615 67.297 216.386 67.826 218.318 67.826C219.698 67.826 220.94 67.573 222.044 67.067C223.194 66.515 224.206 65.733 225.08 64.721C225.264 64.491 225.402 64.353 225.494 64.307C225.586 64.215 225.701 64.169 225.839 64.169C226.207 64.169 226.391 64.399 226.391 64.859C226.391 65.733 225.977 66.699 225.149 67.757C224.459 68.631 223.631 69.39 222.665 70.034C221.699 70.678 220.641 71.161 219.491 71.483C218.341 71.851 217.145 72.035 215.903 72.035ZM209.555 51.128H215.834C216.938 51.128 217.881 51.105 218.663 51.059C219.445 51.013 220.204 50.921 220.94 50.783C221.17 50.737 221.308 50.599 221.354 50.369C221.446 50.093 221.492 49.725 221.492 49.265C221.492 47.931 220.894 46.804 219.698 45.884C218.548 44.918 217.168 44.435 215.558 44.435C214.5 44.435 213.442 44.757 212.384 45.401C211.326 45.999 210.452 46.758 209.762 47.678C209.072 48.598 208.727 49.518 208.727 50.438C208.727 50.898 209.003 51.128 209.555 51.128ZM240.098 72.104C238.166 72.104 236.372 71.805 234.716 71.207C233.106 70.655 231.657 69.85 230.369 68.792C230.185 68.608 230.001 68.401 229.817 68.171C229.679 67.941 229.564 67.688 229.472 67.412C229.242 66.492 229.081 65.296 228.989 63.824C228.943 62.352 228.874 61.133 228.782 60.167C228.782 59.845 228.92 59.615 229.196 59.477C229.472 59.293 229.794 59.201 230.162 59.201C230.392 59.201 230.622 59.27 230.852 59.408C231.082 59.5 231.22 59.684 231.266 59.96C232.186 63.502 233.543 66.032 235.337 67.55C237.177 69.068 239.086 69.827 241.064 69.827C242.674 69.827 244.1 69.482 245.342 68.792C246.584 68.102 247.55 67.136 248.24 65.894C248.976 64.606 249.344 63.111 249.344 61.409C249.344 59.523 249.022 58.005 248.378 56.855C247.78 55.659 246.906 54.624 245.756 53.75C244.606 52.876 243.203 51.933 241.547 50.921C239.753 49.771 237.982 48.621 236.234 47.471C234.486 46.275 233.037 44.918 231.887 43.4C230.737 41.836 230.162 39.95 230.162 37.742C230.162 35.396 230.691 33.28 231.749 31.394C232.807 29.508 234.394 28.013 236.51 26.909C238.672 25.759 241.363 25.184 244.583 25.184C246.239 25.184 247.665 25.368 248.861 25.736C250.103 26.058 251.092 26.38 251.828 26.702C252.196 26.84 252.495 27.07 252.725 27.392C253.001 27.714 253.185 28.059 253.277 28.427C253.553 29.393 253.852 30.497 254.174 31.739C254.496 32.981 254.657 34.154 254.657 35.258C254.657 35.764 254.312 36.017 253.622 36.017C253.208 36.017 252.794 35.925 252.38 35.741C252.012 35.557 251.782 35.327 251.69 35.051C250.724 32.613 249.597 30.75 248.309 29.462C247.021 28.174 245.388 27.53 243.41 27.53C242.03 27.53 240.742 27.783 239.546 28.289C238.35 28.795 237.361 29.623 236.579 30.773C235.843 31.923 235.475 33.464 235.475 35.396C235.475 36.776 235.912 38.041 236.786 39.191C237.706 40.295 238.902 41.353 240.374 42.365C241.846 43.377 243.433 44.412 245.135 45.47C246.745 46.436 248.309 47.494 249.827 48.644C251.391 49.794 252.656 51.174 253.622 52.784C254.634 54.348 255.14 56.28 255.14 58.58C255.14 61.294 254.519 63.686 253.277 65.756C252.035 67.78 250.287 69.344 248.033 70.448C245.779 71.552 243.134 72.104 240.098 72.104ZM272.172 71.966C269.596 71.966 267.273 71.368 265.203 70.172C263.133 68.976 261.477 67.343 260.235 65.273C259.039 63.157 258.441 60.765 258.441 58.097C258.441 56.165 258.809 54.279 259.545 52.439C260.327 50.599 261.408 48.92 262.788 47.402C264.168 45.884 265.778 44.688 267.618 43.814C269.458 42.894 271.436 42.434 273.552 42.434C276.22 42.434 278.612 43.078 280.728 44.366C282.89 45.654 284.592 47.356 285.834 49.472C287.122 51.542 287.766 53.819 287.766 56.303C287.766 58.971 287.168 61.501 285.972 63.893C284.822 66.285 283.097 68.24 280.797 69.758C278.497 71.23 275.622 71.966 272.172 71.966ZM273.621 69.896C275.185 69.896 276.588 69.597 277.83 68.999C279.072 68.401 280.038 67.435 280.728 66.101C281.28 65.043 281.648 63.755 281.832 62.237C282.016 60.719 282.108 59.293 282.108 57.959C282.108 55.751 281.694 53.635 280.866 51.611C280.084 49.541 278.957 47.862 277.485 46.574C276.059 45.24 274.357 44.573 272.379 44.573C271.137 44.573 270.01 44.78 268.998 45.194C268.032 45.562 267.135 46.275 266.307 47.333C265.387 48.483 264.789 49.886 264.513 51.542C264.237 53.198 264.099 54.854 264.099 56.51C264.099 58.764 264.513 60.926 265.341 62.996C266.169 65.02 267.296 66.676 268.722 67.964C270.148 69.252 271.781 69.896 273.621 69.896ZM291.5 71.207C291.04 71.207 290.695 71.138 290.465 71C290.235 70.908 290.12 70.724 290.12 70.448C290.12 70.08 290.258 69.85 290.534 69.758C290.81 69.62 291.201 69.482 291.707 69.344C292.581 69.114 293.225 68.792 293.639 68.378C294.099 67.918 294.329 67.366 294.329 66.722V51.887C294.329 50.645 294.145 49.564 293.777 48.644C293.409 47.724 292.65 47.149 291.5 46.919C291.316 46.873 291.155 46.758 291.017 46.574C290.879 46.39 290.81 46.206 290.81 46.022C290.81 45.562 291.017 45.286 291.431 45.194C292.627 44.826 293.869 44.297 295.157 43.607C296.491 42.871 297.526 42.273 298.262 41.813C298.538 41.629 298.745 41.514 298.883 41.468C299.067 41.376 299.205 41.33 299.297 41.33C299.527 41.33 299.642 41.491 299.642 41.813C299.642 41.951 299.619 42.296 299.573 42.848C299.573 43.4 299.55 44.044 299.504 44.78C299.504 45.516 299.481 46.252 299.435 46.988C299.435 47.08 299.481 47.126 299.573 47.126C300.309 46.206 301.114 45.401 301.988 44.711C302.908 44.021 303.828 43.469 304.748 43.055C305.714 42.641 306.634 42.434 307.508 42.434C308.474 42.434 309.256 42.641 309.854 43.055C310.498 43.469 310.82 43.998 310.82 44.642C310.82 45.102 310.682 45.608 310.406 46.16C310.176 46.712 309.854 47.195 309.44 47.609C309.026 48.023 308.589 48.23 308.129 48.23C307.853 48.23 307.554 48.184 307.232 48.092C306.91 47.954 306.565 47.793 306.197 47.609C305.829 47.471 305.461 47.333 305.093 47.195C304.725 47.057 304.357 46.988 303.989 46.988C302.885 46.988 301.804 47.379 300.746 48.161C299.734 48.943 299.228 50.484 299.228 52.784V66.722C299.228 67.32 299.55 67.826 300.194 68.24C300.838 68.608 301.735 68.976 302.885 69.344C303.391 69.482 303.782 69.62 304.058 69.758C304.334 69.896 304.472 70.126 304.472 70.448C304.472 70.954 304.012 71.207 303.092 71.207C301.712 71.207 300.654 71.138 299.918 71C299.228 70.908 298.285 70.862 297.089 70.862C296.307 70.862 295.663 70.885 295.157 70.931C294.697 70.977 294.191 71.023 293.639 71.069C293.133 71.161 292.42 71.207 291.5 71.207ZM322.135 71.966C319.881 71.966 318.11 71.276 316.822 69.896C315.58 68.516 314.959 66.469 314.959 63.755V47.747C314.959 47.379 314.821 47.126 314.545 46.988C314.269 46.804 313.671 46.712 312.751 46.712H312.337C312.107 46.712 311.9 46.574 311.716 46.298C311.578 45.976 311.509 45.654 311.509 45.332C311.509 45.24 311.578 45.102 311.716 44.918C311.854 44.734 311.946 44.619 311.992 44.573C312.912 43.929 313.74 43.285 314.476 42.641C315.258 41.997 315.948 41.376 316.546 40.778C317.19 40.134 317.719 39.559 318.133 39.053C318.363 38.823 318.547 38.639 318.685 38.501C318.869 38.317 319.076 38.225 319.306 38.225C319.536 38.225 319.743 38.271 319.927 38.363C320.157 38.455 320.249 38.662 320.203 38.984L319.858 42.089C319.812 42.595 319.927 42.94 320.203 43.124C320.479 43.308 320.916 43.4 321.514 43.4H329.38C329.564 43.4 329.725 43.561 329.863 43.883C330.001 44.159 330.07 44.504 330.07 44.918C330.07 45.332 330.001 45.746 329.863 46.16C329.725 46.528 329.564 46.712 329.38 46.712H322.549C321.399 46.712 320.64 46.804 320.272 46.988C319.95 47.172 319.789 47.724 319.789 48.644V62.237C319.789 64.077 320.18 65.526 320.962 66.584C321.744 67.642 322.871 68.171 324.343 68.171C325.677 68.171 326.712 68.079 327.448 67.895C328.184 67.665 328.851 67.343 329.449 66.929C329.541 66.837 329.633 66.791 329.725 66.791C329.909 66.791 330.024 66.906 330.07 67.136C330.162 67.32 330.208 67.527 330.208 67.757C330.208 67.987 329.817 68.447 329.035 69.137C328.299 69.827 327.31 70.471 326.068 71.069C324.872 71.667 323.561 71.966 322.135 71.966ZM336.657 71.966C335.645 71.966 334.748 71.598 333.966 70.862C333.23 70.08 332.862 69.183 332.862 68.171C332.862 67.113 333.23 66.216 333.966 65.48C334.748 64.744 335.645 64.376 336.657 64.376C337.715 64.376 338.612 64.744 339.348 65.48C340.084 66.216 340.452 67.113 340.452 68.171C340.452 69.183 340.084 70.08 339.348 70.862C338.612 71.598 337.715 71.966 336.657 71.966ZM355.499 72.035C353.199 72.035 351.106 71.46 349.22 70.31C347.38 69.114 345.908 67.504 344.804 65.48C343.746 63.41 343.217 61.11 343.217 58.58C343.217 55.59 343.861 52.876 345.149 50.438C346.483 48 348.254 46.068 350.462 44.642C352.67 43.17 355.108 42.434 357.776 42.434C360.766 42.434 363.388 43.239 365.642 44.849C366.194 45.263 366.47 45.7 366.47 46.16C366.47 46.528 366.309 46.942 365.987 47.402C365.665 47.862 365.274 48.253 364.814 48.575C364.354 48.851 363.917 48.989 363.503 48.989C363.273 48.989 363.043 48.92 362.813 48.782C362.583 48.598 362.33 48.414 362.054 48.23C361.042 47.448 359.915 46.712 358.673 46.022C357.431 45.332 356.396 44.987 355.568 44.987C353.314 44.987 351.474 46.045 350.048 48.161C348.668 50.231 347.978 52.968 347.978 56.372C347.978 58.534 348.438 60.489 349.358 62.237C350.324 63.985 351.589 65.365 353.153 66.377C354.763 67.389 356.534 67.895 358.466 67.895C359.8 67.895 360.95 67.688 361.916 67.274C362.882 66.814 363.917 66.032 365.021 64.928C365.113 64.836 365.228 64.767 365.366 64.721C365.504 64.629 365.619 64.583 365.711 64.583C366.217 64.583 366.47 64.905 366.47 65.549C366.47 65.825 366.378 66.147 366.194 66.515C366.056 66.837 365.803 67.228 365.435 67.688C364.699 68.608 363.825 69.413 362.813 70.103C361.801 70.747 360.674 71.23 359.432 71.552C358.236 71.874 356.925 72.035 355.499 72.035ZM381.629 71.966C379.053 71.966 376.73 71.368 374.66 70.172C372.59 68.976 370.934 67.343 369.692 65.273C368.496 63.157 367.898 60.765 367.898 58.097C367.898 56.165 368.266 54.279 369.002 52.439C369.784 50.599 370.865 48.92 372.245 47.402C373.625 45.884 375.235 44.688 377.075 43.814C378.915 42.894 380.893 42.434 383.009 42.434C385.677 42.434 388.069 43.078 390.185 44.366C392.347 45.654 394.049 47.356 395.291 49.472C396.579 51.542 397.223 53.819 397.223 56.303C397.223 58.971 396.625 61.501 395.429 63.893C394.279 66.285 392.554 68.24 390.254 69.758C387.954 71.23 385.079 71.966 381.629 71.966ZM383.078 69.896C384.642 69.896 386.045 69.597 387.287 68.999C388.529 68.401 389.495 67.435 390.185 66.101C390.737 65.043 391.105 63.755 391.289 62.237C391.473 60.719 391.565 59.293 391.565 57.959C391.565 55.751 391.151 53.635 390.323 51.611C389.541 49.541 388.414 47.862 386.942 46.574C385.516 45.24 383.814 44.573 381.836 44.573C380.594 44.573 379.467 44.78 378.455 45.194C377.489 45.562 376.592 46.275 375.764 47.333C374.844 48.483 374.246 49.886 373.97 51.542C373.694 53.198 373.556 54.854 373.556 56.51C373.556 58.764 373.97 60.926 374.798 62.996C375.626 65.02 376.753 66.676 378.179 67.964C379.605 69.252 381.238 69.896 383.078 69.896ZM400.612 71.207C400.244 71.207 399.922 71.161 399.646 71.069C399.37 70.977 399.232 70.77 399.232 70.448C399.232 70.126 399.37 69.896 399.646 69.758C399.968 69.62 400.359 69.482 400.819 69.344C401.463 69.114 402.107 68.861 402.751 68.585C403.441 68.263 403.786 67.642 403.786 66.722V51.887C403.786 50.645 403.648 49.564 403.372 48.644C403.096 47.678 402.36 47.103 401.164 46.919C400.98 46.873 400.819 46.781 400.681 46.643C400.589 46.505 400.543 46.298 400.543 46.022C400.543 45.562 400.727 45.286 401.095 45.194C402.337 44.872 403.326 44.55 404.062 44.228C404.798 43.86 405.442 43.469 405.994 43.055C406.592 42.595 407.305 42.112 408.133 41.606C408.225 41.56 408.317 41.514 408.409 41.468C408.501 41.376 408.616 41.33 408.754 41.33C409.03 41.33 409.168 41.491 409.168 41.813C409.168 42.135 409.099 42.802 408.961 43.814C408.869 44.78 408.823 45.585 408.823 46.229C408.823 46.689 408.869 46.965 408.961 47.057H409.099C410.157 46.045 411.537 45.033 413.239 44.021C414.987 42.963 417.195 42.434 419.863 42.434C421.519 42.434 422.899 42.802 424.003 43.538C425.107 44.228 426.027 45.447 426.763 47.195H426.97C428.442 45.861 430.121 44.734 432.007 43.814C433.893 42.894 435.963 42.434 438.217 42.434C439.735 42.434 441 42.894 442.012 43.814C443.024 44.734 443.783 45.93 444.289 47.402C444.841 48.874 445.117 50.415 445.117 52.025V66.722C445.117 67.642 445.439 68.263 446.083 68.585C446.727 68.861 447.394 69.114 448.084 69.344C448.544 69.482 448.912 69.62 449.188 69.758C449.51 69.896 449.671 70.126 449.671 70.448C449.671 70.724 449.556 70.908 449.326 71C449.142 71.138 448.797 71.207 448.291 71.207C447.371 71.207 446.658 71.161 446.152 71.069C445.646 71.023 445.163 70.977 444.703 70.931C444.289 70.885 443.668 70.862 442.84 70.862C442.058 70.862 441.414 70.885 440.908 70.931C440.402 70.977 439.873 71.023 439.321 71.069C438.769 71.161 438.033 71.207 437.113 71.207C436.699 71.207 436.354 71.138 436.078 71C435.848 70.908 435.733 70.724 435.733 70.448C435.733 70.08 435.871 69.827 436.147 69.689C436.469 69.551 436.86 69.436 437.32 69.344C438.056 69.16 438.723 68.907 439.321 68.585C439.965 68.263 440.287 67.642 440.287 66.722V52.232C440.287 51.128 440.034 50.093 439.528 49.127C439.022 48.115 438.355 47.287 437.527 46.643C436.699 45.999 435.779 45.677 434.767 45.677C433.617 45.677 432.536 45.815 431.524 46.091C430.558 46.367 429.638 46.85 428.764 47.54C427.476 48.552 426.832 50.208 426.832 52.508V66.722C426.832 67.642 427.177 68.263 427.867 68.585C428.557 68.907 429.247 69.16 429.937 69.344C430.397 69.436 430.765 69.574 431.041 69.758C431.363 69.896 431.524 70.126 431.524 70.448C431.524 70.724 431.409 70.908 431.179 71C430.949 71.138 430.604 71.207 430.144 71.207C429.224 71.207 428.488 71.161 427.936 71.069C427.43 71.023 426.924 70.977 426.418 70.931C425.958 70.885 425.314 70.862 424.486 70.862C423.704 70.862 423.06 70.885 422.554 70.931C422.048 70.977 421.519 71.023 420.967 71.069C420.415 71.161 419.679 71.207 418.759 71.207C418.391 71.207 418.069 71.138 417.793 71C417.517 70.908 417.379 70.724 417.379 70.448C417.379 70.08 417.54 69.85 417.862 69.758C418.23 69.62 418.598 69.482 418.966 69.344C419.656 69.114 420.323 68.861 420.967 68.585C421.657 68.263 422.002 67.642 422.002 66.722V52.232C422.002 51.128 421.749 50.093 421.243 49.127C420.737 48.115 420.07 47.287 419.242 46.643C418.414 45.999 417.494 45.677 416.482 45.677C415.332 45.677 414.251 45.815 413.239 46.091C412.273 46.367 411.353 46.85 410.479 47.54C409.237 48.46 408.616 50.116 408.616 52.508V66.722C408.616 67.642 408.938 68.263 409.582 68.585C410.226 68.861 410.893 69.114 411.583 69.344C411.951 69.482 412.296 69.62 412.618 69.758C412.986 69.85 413.17 70.08 413.17 70.448C413.17 70.724 413.032 70.908 412.756 71C412.526 71.138 412.204 71.207 411.79 71.207C410.87 71.207 410.134 71.161 409.582 71.069C409.076 71.023 408.593 70.977 408.133 70.931C407.673 70.885 407.029 70.862 406.201 70.862C405.419 70.862 404.775 70.885 404.269 70.931C403.809 70.977 403.303 71.023 402.751 71.069C402.245 71.161 401.532 71.207 400.612 71.207Z" fill="black"/>
<path d="M76.6679 21.4142C70.7593 15.4415 70.9034 9.32318 76.9562 2.3308C77.2444 1.89377 77.3885 1.31107 77.1003 0.874048C76.9562 0.291349 76.3797 0 75.8033 0H11.8172C5.33217 0 0 5.38996 0 11.9453V78.373C0 86.5308 6.62918 93.2318 14.6995 93.2318H75.9474C76.6679 93.2318 77.3885 92.6491 77.3885 91.7751V22.7253V22.5796C77.2444 22.1426 77.1003 21.7055 76.6679 21.4142ZM58.2215 55.2107C58.2215 55.9391 57.6451 56.6675 56.7804 56.6675H43.8102V77.6446C43.8102 78.373 43.2338 79.1014 42.3691 79.1014H34.587C33.8665 79.1014 33.1459 78.5187 33.1459 77.6446V56.6675H20.1758C19.4552 56.6675 18.7346 56.0848 18.7346 55.2107V47.1986C18.7346 46.4702 19.3111 45.7419 20.1758 45.7419H33.1459V34.5249C33.1459 33.7965 33.7224 33.0682 34.587 33.0682H42.3691C43.0897 33.0682 43.8102 33.6509 43.8102 34.5249V45.7419H56.7804C57.5009 45.7419 58.2215 46.3246 58.2215 47.1986V55.2107ZM11.8172 21.1228C6.7733 21.1228 2.73814 17.0439 2.73814 11.9453C2.73814 6.84671 6.7733 2.76782 11.8172 2.76782H72.921C68.4535 9.17751 68.3094 15.2958 72.6328 21.1228H11.8172Z" fill="black"/>
</svg>
