<svg width="649" height="213" viewBox="0 0 649 213" fill="none" xmlns="http://www.w3.org/2000/svg">
<path d="M80.4544 205.49C79.605 205.49 78.919 205.392 78.3964 205.196C77.8737 205.065 77.6124 204.804 77.6124 204.412C77.6124 203.628 78.6904 203.04 80.8464 202.648C83.329 202.191 85.2237 201.439 86.5304 200.394C87.837 199.349 88.4904 197.65 88.4904 195.298V151.198C88.4904 148.846 88.0004 147.115 87.0204 146.004C86.0404 144.893 84.3417 144.24 81.9244 144.044C80.8137 143.913 79.997 143.685 79.4744 143.358C78.9517 142.966 78.6904 142.541 78.6904 142.084C78.6904 141.692 78.9517 141.431 79.4744 141.3C79.997 141.104 80.683 141.006 81.5324 141.006C83.2964 141.006 84.6684 141.006 85.6484 141.006C86.6284 141.006 87.543 141.039 88.3924 141.104C89.307 141.104 90.4177 141.104 91.7244 141.104C92.9657 141.104 94.0437 141.071 94.9584 141.006C95.873 140.875 96.8857 140.777 97.9964 140.712C99.1724 140.647 100.708 140.614 102.602 140.614C110.246 140.614 115.93 141.725 119.654 143.946C123.444 146.102 125.338 149.859 125.338 155.216C125.338 157.437 124.946 159.397 124.162 161.096C123.444 162.729 122.725 163.905 122.006 164.624C120.961 165.669 120.014 166.486 119.164 167.074C118.315 167.597 117.074 168.185 115.44 168.838C115.179 168.903 115.048 169.067 115.048 169.328C115.048 169.524 115.179 169.687 115.44 169.818C116.943 170.275 118.478 170.863 120.046 171.582C121.68 172.301 123.182 173.248 124.554 174.424C125.992 175.535 127.135 177.037 127.984 178.932C128.899 180.761 129.356 183.113 129.356 185.988C129.356 189.581 128.768 192.423 127.592 194.514C126.482 196.605 125.142 198.205 123.574 199.316C122.006 200.427 120.536 201.341 119.164 202.06C117.139 203.105 114.787 203.922 112.108 204.51C109.43 205.098 106.228 205.392 102.504 205.392C101.655 205.392 100.381 205.327 98.6824 205.196C96.9837 205.065 95.1544 205 93.1944 205C91.4957 205 90.0584 205.033 88.8824 205.098C87.7064 205.163 86.465 205.229 85.1584 205.294C83.917 205.425 82.349 205.49 80.4544 205.49ZM103.876 201.374C106.751 201.374 109.43 200.721 111.912 199.414C114.395 198.107 116.388 196.343 117.89 194.122C119.393 191.835 120.144 189.287 120.144 186.478C120.144 183.93 119.72 181.839 118.87 180.206C118.021 178.507 117.041 177.135 115.93 176.09C114.82 175.045 113.807 174.293 112.892 173.836C112.043 173.313 110.704 172.791 108.874 172.268C107.045 171.68 104.66 171.386 101.72 171.386C99.6297 171.386 98.1597 171.811 97.3104 172.66C96.5264 173.509 96.1344 174.261 96.1344 174.914V194.416C96.1344 197.16 96.7877 199.022 98.0944 200.002C99.4664 200.917 101.394 201.374 103.876 201.374ZM100.642 168.642C102.406 168.642 104.301 168.446 106.326 168.054C108.417 167.662 110.475 166.911 112.5 165.8C113.219 165.408 114.134 164.461 115.244 162.958C116.355 161.455 116.91 159.299 116.91 156.49C116.91 154.595 116.551 152.668 115.832 150.708C115.114 148.683 113.742 146.984 111.716 145.612C109.691 144.24 106.653 143.554 102.602 143.554C99.9237 143.554 98.1597 143.913 97.3104 144.632C96.5264 145.351 96.1344 146.461 96.1344 147.964V165.016C96.1344 166.715 96.6897 167.76 97.8004 168.152C98.911 168.479 99.8584 168.642 100.642 168.642ZM134.64 205.294C134.052 205.294 133.562 205.196 133.17 205C132.843 204.869 132.68 204.608 132.68 204.216C132.68 203.693 132.909 203.334 133.366 203.138C133.889 202.942 134.411 202.779 134.934 202.648C136.306 202.321 137.351 201.929 138.07 201.472C138.789 200.949 139.148 200.1 139.148 198.924V177.658C139.148 175.894 138.821 174.326 138.168 172.954C137.58 171.582 136.437 170.765 134.738 170.504C134.411 170.439 134.15 170.308 133.954 170.112C133.823 169.916 133.758 169.622 133.758 169.23C133.758 168.511 134.052 168.119 134.64 168.054C137.253 167.466 139.409 166.682 141.108 165.702C142.807 164.657 144.081 163.807 144.93 163.154C145.518 162.697 145.975 162.468 146.302 162.468C146.694 162.468 146.89 162.631 146.89 162.958C146.89 163.481 146.792 164.526 146.596 166.094C146.465 167.597 146.335 169.295 146.204 171.19C146.073 173.019 146.008 174.685 146.008 176.188V198.924C146.008 200.035 146.367 200.851 147.086 201.374C147.87 201.897 148.915 202.321 150.222 202.648C150.745 202.779 151.235 202.942 151.692 203.138C152.215 203.334 152.476 203.693 152.476 204.216C152.476 204.935 151.823 205.294 150.516 205.294C149.275 205.294 148.262 205.229 147.478 205.098C146.759 205.033 146.041 204.967 145.322 204.902C144.669 204.837 143.754 204.804 142.578 204.804C141.467 204.804 140.553 204.837 139.834 204.902C139.115 204.967 138.397 205.033 137.678 205.098C136.959 205.229 135.947 205.294 134.64 205.294ZM142.48 154.432C141.108 154.432 139.932 153.975 138.952 153.06C138.037 152.08 137.58 150.904 137.58 149.532C137.58 148.095 138.037 146.919 138.952 146.004C139.932 145.024 141.108 144.534 142.48 144.534C143.917 144.534 145.093 145.024 146.008 146.004C146.988 146.919 147.478 148.095 147.478 149.532C147.478 150.904 146.988 152.08 146.008 153.06C145.093 153.975 143.917 154.432 142.48 154.432ZM176.791 206.372C175.354 206.372 173.917 206.241 172.479 205.98C171.042 205.719 169.67 205.425 168.363 205.098C166.926 204.706 165.652 204.347 164.541 204.02C163.496 203.693 162.81 203.53 162.483 203.53C162.091 203.53 161.699 203.661 161.307 203.922C160.981 204.183 160.654 204.477 160.327 204.804C160.001 205.131 159.707 205.294 159.445 205.294C159.184 205.294 158.89 205.196 158.563 205C158.237 204.739 158.073 204.445 158.073 204.118C158.073 203.53 158.171 202.517 158.367 201.08C158.629 199.643 158.759 198.303 158.759 197.062V149.532C158.759 147.833 158.335 146.363 157.485 145.122C156.636 143.881 155.558 142.966 154.251 142.378C153.99 142.247 153.696 142.084 153.369 141.888C153.108 141.627 152.977 141.3 152.977 140.908C152.977 140.581 153.108 140.353 153.369 140.222C153.631 140.091 153.892 139.993 154.153 139.928C155.003 139.732 156.146 139.373 157.583 138.85C159.086 138.327 160.491 137.805 161.797 137.282C163.104 136.759 163.986 136.4 164.443 136.204C164.835 136.008 165.129 135.91 165.325 135.91C165.456 135.91 165.587 135.975 165.717 136.106C165.848 136.237 165.913 136.4 165.913 136.596C165.913 136.857 165.848 137.968 165.717 139.928C165.652 141.823 165.619 144.142 165.619 146.886V166.976C165.619 168.217 165.685 169.067 165.815 169.524C165.946 169.916 166.175 170.145 166.501 170.21C168.527 168.511 170.879 167.139 173.557 166.094C176.236 164.983 178.653 164.428 180.809 164.428C184.141 164.428 187.114 165.277 189.727 166.976C192.406 168.675 194.529 170.994 196.097 173.934C197.665 176.809 198.449 180.075 198.449 183.734C198.449 188.177 197.535 192.129 195.705 195.592C193.876 198.989 191.328 201.635 188.061 203.53C184.86 205.425 181.103 206.372 176.791 206.372ZM179.045 203.334C181.528 203.334 183.651 202.583 185.415 201.08C187.245 199.512 188.649 197.421 189.629 194.808C190.609 192.129 191.099 189.157 191.099 185.89C191.099 183.342 190.609 180.729 189.629 178.05C188.715 175.371 187.245 173.117 185.219 171.288C183.259 169.459 180.711 168.544 177.575 168.544C174.962 168.544 172.675 168.969 170.715 169.818C168.755 170.667 167.057 171.745 165.619 173.052V192.064C165.619 194.351 166.24 196.343 167.481 198.042C168.788 199.741 170.454 201.047 172.479 201.962C174.57 202.877 176.759 203.334 179.045 203.334ZM201.291 205.294C200.965 205.294 200.54 205.229 200.017 205.098C199.56 205.033 199.331 204.804 199.331 204.412C199.331 203.889 199.56 203.53 200.017 203.334C200.54 203.073 201.063 202.844 201.585 202.648C202.565 202.321 203.513 201.962 204.427 201.57C205.342 201.113 205.799 200.231 205.799 198.924V149.532C205.799 147.637 205.44 146.069 204.721 144.828C204.068 143.521 202.925 142.705 201.291 142.378C200.769 142.247 200.507 141.823 200.507 141.104C200.507 140.451 200.736 140.059 201.193 139.928C202.892 139.536 204.362 139.144 205.603 138.752C206.845 138.295 207.988 137.837 209.033 137.38C210.144 136.923 211.222 136.498 212.267 136.106C212.529 135.975 212.725 135.91 212.855 135.91C212.986 135.91 213.084 136.008 213.149 136.204C213.28 136.335 213.345 136.465 213.345 136.596C213.345 137.184 213.215 138.458 212.953 140.418C212.757 142.313 212.659 145.481 212.659 149.924V198.924C212.659 200.231 213.117 201.113 214.031 201.57C214.946 201.962 215.893 202.321 216.873 202.648C217.396 202.844 217.886 203.073 218.343 203.334C218.866 203.53 219.127 203.889 219.127 204.412C219.127 204.804 218.866 205.033 218.343 205.098C217.886 205.229 217.494 205.294 217.167 205.294C215.926 205.294 214.913 205.229 214.129 205.098C213.411 205.033 212.692 204.967 211.973 204.902C211.32 204.837 210.405 204.804 209.229 204.804C208.119 204.804 207.204 204.837 206.485 204.902C205.767 204.967 205.048 205.033 204.329 205.098C203.611 205.229 202.598 205.294 201.291 205.294ZM238.946 206.47C235.353 206.47 232.217 205.588 229.538 203.824C226.86 202.06 224.769 199.577 223.266 196.376C221.764 193.109 221.012 189.353 221.012 185.106C221.012 181.317 221.862 177.887 223.56 174.816C225.324 171.68 227.644 169.165 230.518 167.27C233.393 165.375 236.529 164.428 239.926 164.428C242.54 164.428 244.859 164.951 246.884 165.996C248.91 167.041 250.478 168.511 251.588 170.406C252.764 172.235 253.352 174.359 253.352 176.776C253.352 178.801 252.372 179.814 250.412 179.814H229.734C228.82 179.814 228.166 180.075 227.774 180.598C227.448 181.055 227.284 182.003 227.284 183.44C227.284 186.576 227.97 189.451 229.342 192.064C230.714 194.612 232.544 196.67 234.83 198.238C237.117 199.741 239.632 200.492 242.376 200.492C244.336 200.492 246.1 200.133 247.668 199.414C249.302 198.63 250.739 197.519 251.98 196.082C252.242 195.755 252.438 195.559 252.568 195.494C252.699 195.363 252.862 195.298 253.058 195.298C253.581 195.298 253.842 195.625 253.842 196.278C253.842 197.519 253.254 198.891 252.078 200.394C251.098 201.635 249.922 202.713 248.55 203.628C247.178 204.543 245.676 205.229 244.042 205.686C242.409 206.209 240.71 206.47 238.946 206.47ZM229.93 176.776H238.848C240.416 176.776 241.756 176.743 242.866 176.678C243.977 176.613 245.055 176.482 246.1 176.286C246.427 176.221 246.623 176.025 246.688 175.698C246.819 175.306 246.884 174.783 246.884 174.13C246.884 172.235 246.035 170.635 244.336 169.328C242.703 167.956 240.743 167.27 238.456 167.27C236.954 167.27 235.451 167.727 233.948 168.642C232.446 169.491 231.204 170.569 230.224 171.876C229.244 173.183 228.754 174.489 228.754 175.796C228.754 176.449 229.146 176.776 229.93 176.776ZM273.31 206.568C270.566 206.568 268.018 206.143 265.666 205.294C263.379 204.51 261.321 203.367 259.492 201.864C259.231 201.603 258.969 201.309 258.708 200.982C258.512 200.655 258.349 200.296 258.218 199.904C257.891 198.597 257.663 196.899 257.532 194.808C257.467 192.717 257.369 190.986 257.238 189.614C257.238 189.157 257.434 188.83 257.826 188.634C258.218 188.373 258.675 188.242 259.198 188.242C259.525 188.242 259.851 188.34 260.178 188.536C260.505 188.667 260.701 188.928 260.766 189.32C262.073 194.351 264 197.944 266.548 200.1C269.161 202.256 271.873 203.334 274.682 203.334C276.969 203.334 278.994 202.844 280.758 201.864C282.522 200.884 283.894 199.512 284.874 197.748C285.919 195.919 286.442 193.795 286.442 191.378C286.442 188.699 285.985 186.543 285.07 184.91C284.221 183.211 282.979 181.741 281.346 180.5C279.713 179.259 277.72 177.919 275.368 176.482C272.82 174.849 270.305 173.215 267.822 171.582C265.339 169.883 263.281 167.956 261.648 165.8C260.015 163.579 259.198 160.9 259.198 157.764C259.198 154.432 259.949 151.427 261.452 148.748C262.955 146.069 265.209 143.946 268.214 142.378C271.285 140.745 275.107 139.928 279.68 139.928C282.032 139.928 284.057 140.189 285.756 140.712C287.52 141.169 288.925 141.627 289.97 142.084C290.493 142.28 290.917 142.607 291.244 143.064C291.636 143.521 291.897 144.011 292.028 144.534C292.42 145.906 292.845 147.474 293.302 149.238C293.759 151.002 293.988 152.668 293.988 154.236C293.988 154.955 293.498 155.314 292.518 155.314C291.93 155.314 291.342 155.183 290.754 154.922C290.231 154.661 289.905 154.334 289.774 153.942C288.402 150.479 286.801 147.833 284.972 146.004C283.143 144.175 280.823 143.26 278.014 143.26C276.054 143.26 274.225 143.619 272.526 144.338C270.827 145.057 269.423 146.233 268.312 147.866C267.267 149.499 266.744 151.688 266.744 154.432C266.744 156.392 267.365 158.189 268.606 159.822C269.913 161.39 271.611 162.893 273.702 164.33C275.793 165.767 278.047 167.237 280.464 168.74C282.751 170.112 284.972 171.615 287.128 173.248C289.349 174.881 291.146 176.841 292.518 179.128C293.955 181.349 294.674 184.093 294.674 187.36C294.674 191.215 293.792 194.612 292.028 197.552C290.264 200.427 287.781 202.648 284.58 204.216C281.379 205.784 277.622 206.568 273.31 206.568ZM318.865 206.372C315.206 206.372 311.907 205.523 308.967 203.824C306.027 202.125 303.675 199.806 301.911 196.866C300.212 193.861 299.363 190.463 299.363 186.674C299.363 183.93 299.885 181.251 300.931 178.638C302.041 176.025 303.577 173.64 305.537 171.484C307.497 169.328 309.783 167.629 312.397 166.388C315.01 165.081 317.819 164.428 320.825 164.428C324.614 164.428 328.011 165.343 331.017 167.172C334.087 169.001 336.505 171.419 338.269 174.424C340.098 177.364 341.013 180.598 341.013 184.126C341.013 187.915 340.163 191.509 338.465 194.906C336.831 198.303 334.381 201.08 331.115 203.236C327.848 205.327 323.765 206.372 318.865 206.372ZM320.923 203.432C323.144 203.432 325.137 203.007 326.901 202.158C328.665 201.309 330.037 199.937 331.017 198.042C331.801 196.539 332.323 194.71 332.585 192.554C332.846 190.398 332.977 188.373 332.977 186.478C332.977 183.342 332.389 180.337 331.213 177.462C330.102 174.522 328.501 172.137 326.411 170.308C324.385 168.413 321.968 167.466 319.159 167.466C317.395 167.466 315.794 167.76 314.357 168.348C312.985 168.871 311.711 169.883 310.535 171.386C309.228 173.019 308.379 175.012 307.987 177.364C307.595 179.716 307.399 182.068 307.399 184.42C307.399 187.621 307.987 190.692 309.163 193.632C310.339 196.507 311.939 198.859 313.965 200.688C315.99 202.517 318.309 203.432 320.923 203.432ZM346.316 205.294C345.663 205.294 345.173 205.196 344.846 205C344.519 204.869 344.356 204.608 344.356 204.216C344.356 203.693 344.552 203.367 344.944 203.236C345.336 203.04 345.891 202.844 346.61 202.648C347.851 202.321 348.766 201.864 349.354 201.276C350.007 200.623 350.334 199.839 350.334 198.924V177.854C350.334 176.09 350.073 174.555 349.55 173.248C349.027 171.941 347.949 171.125 346.316 170.798C346.055 170.733 345.826 170.569 345.63 170.308C345.434 170.047 345.336 169.785 345.336 169.524C345.336 168.871 345.63 168.479 346.218 168.348C347.917 167.825 349.681 167.074 351.51 166.094C353.405 165.049 354.875 164.199 355.92 163.546C356.312 163.285 356.606 163.121 356.802 163.056C357.063 162.925 357.259 162.86 357.39 162.86C357.717 162.86 357.88 163.089 357.88 163.546C357.88 163.742 357.847 164.232 357.782 165.016C357.782 165.8 357.749 166.715 357.684 167.76C357.684 168.805 357.651 169.851 357.586 170.896C357.586 171.027 357.651 171.092 357.782 171.092C358.827 169.785 359.971 168.642 361.212 167.662C362.519 166.682 363.825 165.898 365.132 165.31C366.504 164.722 367.811 164.428 369.052 164.428C370.424 164.428 371.535 164.722 372.384 165.31C373.299 165.898 373.756 166.649 373.756 167.564C373.756 168.217 373.56 168.936 373.168 169.72C372.841 170.504 372.384 171.19 371.796 171.778C371.208 172.366 370.587 172.66 369.934 172.66C369.542 172.66 369.117 172.595 368.66 172.464C368.203 172.268 367.713 172.039 367.19 171.778C366.667 171.582 366.145 171.386 365.622 171.19C365.099 170.994 364.577 170.896 364.054 170.896C362.486 170.896 360.951 171.451 359.448 172.562C358.011 173.673 357.292 175.861 357.292 179.128V198.924C357.292 199.773 357.749 200.492 358.664 201.08C359.579 201.603 360.853 202.125 362.486 202.648C363.205 202.844 363.76 203.04 364.152 203.236C364.544 203.432 364.74 203.759 364.74 204.216C364.74 204.935 364.087 205.294 362.78 205.294C360.82 205.294 359.317 205.196 358.272 205C357.292 204.869 355.953 204.804 354.254 204.804C353.143 204.804 352.229 204.837 351.51 204.902C350.857 204.967 350.138 205.033 349.354 205.098C348.635 205.229 347.623 205.294 346.316 205.294ZM389.827 206.372C386.625 206.372 384.11 205.392 382.281 203.432C380.517 201.472 379.635 198.565 379.635 194.71V171.974C379.635 171.451 379.439 171.092 379.047 170.896C378.655 170.635 377.805 170.504 376.499 170.504H375.911C375.584 170.504 375.29 170.308 375.029 169.916C374.833 169.459 374.735 169.001 374.735 168.544C374.735 168.413 374.833 168.217 375.029 167.956C375.225 167.695 375.355 167.531 375.421 167.466C376.727 166.551 377.903 165.637 378.949 164.722C380.059 163.807 381.039 162.925 381.889 162.076C382.803 161.161 383.555 160.345 384.143 159.626C384.469 159.299 384.731 159.038 384.927 158.842C385.188 158.581 385.482 158.45 385.809 158.45C386.135 158.45 386.429 158.515 386.691 158.646C387.017 158.777 387.148 159.071 387.083 159.528L386.593 163.938C386.527 164.657 386.691 165.147 387.083 165.408C387.475 165.669 388.095 165.8 388.945 165.8H400.117C400.378 165.8 400.607 166.029 400.803 166.486C400.999 166.878 401.097 167.368 401.097 167.956C401.097 168.544 400.999 169.132 400.803 169.72C400.607 170.243 400.378 170.504 400.117 170.504H390.415C388.781 170.504 387.703 170.635 387.181 170.896C386.723 171.157 386.495 171.941 386.495 173.248V192.554C386.495 195.167 387.05 197.225 388.161 198.728C389.271 200.231 390.872 200.982 392.963 200.982C394.857 200.982 396.327 200.851 397.373 200.59C398.418 200.263 399.365 199.806 400.215 199.218C400.345 199.087 400.476 199.022 400.607 199.022C400.868 199.022 401.031 199.185 401.097 199.512C401.227 199.773 401.293 200.067 401.293 200.394C401.293 200.721 400.737 201.374 399.627 202.354C398.581 203.334 397.177 204.249 395.413 205.098C393.714 205.947 391.852 206.372 389.827 206.372ZM410.451 206.372C409.014 206.372 407.74 205.849 406.629 204.804C405.584 203.693 405.061 202.419 405.061 200.982C405.061 199.479 405.584 198.205 406.629 197.16C407.74 196.115 409.014 195.592 410.451 195.592C411.954 195.592 413.228 196.115 414.273 197.16C415.318 198.205 415.841 199.479 415.841 200.982C415.841 202.419 415.318 203.693 414.273 204.804C413.228 205.849 411.954 206.372 410.451 206.372ZM437.213 206.47C433.946 206.47 430.973 205.653 428.295 204.02C425.681 202.321 423.591 200.035 422.023 197.16C420.52 194.22 419.769 190.953 419.769 187.36C419.769 183.113 420.683 179.259 422.513 175.796C424.407 172.333 426.923 169.589 430.059 167.564C433.195 165.473 436.657 164.428 440.447 164.428C444.693 164.428 448.417 165.571 451.619 167.858C452.403 168.446 452.795 169.067 452.795 169.72C452.795 170.243 452.566 170.831 452.109 171.484C451.651 172.137 451.096 172.693 450.443 173.15C449.789 173.542 449.169 173.738 448.581 173.738C448.254 173.738 447.927 173.64 447.601 173.444C447.274 173.183 446.915 172.921 446.523 172.66C445.085 171.549 443.485 170.504 441.721 169.524C439.957 168.544 438.487 168.054 437.311 168.054C434.109 168.054 431.496 169.557 429.471 172.562C427.511 175.502 426.531 179.389 426.531 184.224C426.531 187.295 427.184 190.071 428.491 192.554C429.863 195.037 431.659 196.997 433.881 198.434C436.167 199.871 438.683 200.59 441.427 200.59C443.321 200.59 444.955 200.296 446.327 199.708C447.699 199.055 449.169 197.944 450.737 196.376C450.867 196.245 451.031 196.147 451.227 196.082C451.423 195.951 451.586 195.886 451.717 195.886C452.435 195.886 452.795 196.343 452.795 197.258C452.795 197.65 452.664 198.107 452.403 198.63C452.207 199.087 451.847 199.643 451.325 200.296C450.279 201.603 449.038 202.746 447.601 203.726C446.163 204.641 444.563 205.327 442.799 205.784C441.1 206.241 439.238 206.47 437.213 206.47ZM474.325 206.372C470.666 206.372 467.367 205.523 464.427 203.824C461.487 202.125 459.135 199.806 457.371 196.866C455.672 193.861 454.823 190.463 454.823 186.674C454.823 183.93 455.345 181.251 456.391 178.638C457.501 176.025 459.037 173.64 460.997 171.484C462.957 169.328 465.243 167.629 467.857 166.388C470.47 165.081 473.279 164.428 476.285 164.428C480.074 164.428 483.471 165.343 486.477 167.172C489.547 169.001 491.965 171.419 493.729 174.424C495.558 177.364 496.473 180.598 496.473 184.126C496.473 187.915 495.623 191.509 493.925 194.906C492.291 198.303 489.841 201.08 486.575 203.236C483.308 205.327 479.225 206.372 474.325 206.372ZM476.383 203.432C478.604 203.432 480.597 203.007 482.361 202.158C484.125 201.309 485.497 199.937 486.477 198.042C487.261 196.539 487.783 194.71 488.045 192.554C488.306 190.398 488.437 188.373 488.437 186.478C488.437 183.342 487.849 180.337 486.673 177.462C485.562 174.522 483.961 172.137 481.871 170.308C479.845 168.413 477.428 167.466 474.619 167.466C472.855 167.466 471.254 167.76 469.817 168.348C468.445 168.871 467.171 169.883 465.995 171.386C464.688 173.019 463.839 175.012 463.447 177.364C463.055 179.716 462.859 182.068 462.859 184.42C462.859 187.621 463.447 190.692 464.623 193.632C465.799 196.507 467.399 198.859 469.425 200.688C471.45 202.517 473.769 203.432 476.383 203.432ZM501.286 205.294C500.764 205.294 500.306 205.229 499.914 205.098C499.522 204.967 499.326 204.673 499.326 204.216C499.326 203.759 499.522 203.432 499.914 203.236C500.372 203.04 500.927 202.844 501.58 202.648C502.495 202.321 503.41 201.962 504.324 201.57C505.304 201.113 505.794 200.231 505.794 198.924V177.854C505.794 176.09 505.598 174.555 505.206 173.248C504.814 171.876 503.769 171.059 502.07 170.798C501.809 170.733 501.58 170.602 501.384 170.406C501.254 170.21 501.188 169.916 501.188 169.524C501.188 168.871 501.45 168.479 501.972 168.348C503.736 167.891 505.141 167.433 506.186 166.976C507.232 166.453 508.146 165.898 508.93 165.31C509.78 164.657 510.792 163.971 511.968 163.252C512.099 163.187 512.23 163.121 512.36 163.056C512.491 162.925 512.654 162.86 512.85 162.86C513.242 162.86 513.438 163.089 513.438 163.546C513.438 164.003 513.34 164.951 513.144 166.388C513.014 167.76 512.948 168.903 512.948 169.818C512.948 170.471 513.014 170.863 513.144 170.994H513.34C514.843 169.557 516.803 168.119 519.22 166.682C521.703 165.179 524.839 164.428 528.628 164.428C530.98 164.428 532.94 164.951 534.508 165.996C536.076 166.976 537.383 168.707 538.428 171.19H538.722C540.813 169.295 543.198 167.695 545.876 166.388C548.555 165.081 551.495 164.428 554.696 164.428C556.852 164.428 558.649 165.081 560.086 166.388C561.524 167.695 562.602 169.393 563.32 171.484C564.104 173.575 564.496 175.763 564.496 178.05V198.924C564.496 200.231 564.954 201.113 565.868 201.57C566.783 201.962 567.73 202.321 568.71 202.648C569.364 202.844 569.886 203.04 570.278 203.236C570.736 203.432 570.964 203.759 570.964 204.216C570.964 204.608 570.801 204.869 570.474 205C570.213 205.196 569.723 205.294 569.004 205.294C567.698 205.294 566.685 205.229 565.966 205.098C565.248 205.033 564.562 204.967 563.908 204.902C563.32 204.837 562.438 204.804 561.262 204.804C560.152 204.804 559.237 204.837 558.518 204.902C557.8 204.967 557.048 205.033 556.264 205.098C555.48 205.229 554.435 205.294 553.128 205.294C552.54 205.294 552.05 205.196 551.658 205C551.332 204.869 551.168 204.608 551.168 204.216C551.168 203.693 551.364 203.334 551.756 203.138C552.214 202.942 552.769 202.779 553.422 202.648C554.468 202.387 555.415 202.027 556.264 201.57C557.179 201.113 557.636 200.231 557.636 198.924V178.344C557.636 176.776 557.277 175.306 556.558 173.934C555.84 172.497 554.892 171.321 553.716 170.406C552.54 169.491 551.234 169.034 549.796 169.034C548.163 169.034 546.628 169.23 545.19 169.622C543.818 170.014 542.512 170.7 541.27 171.68C539.441 173.117 538.526 175.469 538.526 178.736V198.924C538.526 200.231 539.016 201.113 539.996 201.57C540.976 202.027 541.956 202.387 542.936 202.648C543.59 202.779 544.112 202.975 544.504 203.236C544.962 203.432 545.19 203.759 545.19 204.216C545.19 204.608 545.027 204.869 544.7 205C544.374 205.196 543.884 205.294 543.23 205.294C541.924 205.294 540.878 205.229 540.094 205.098C539.376 205.033 538.657 204.967 537.938 204.902C537.285 204.837 536.37 204.804 535.194 204.804C534.084 204.804 533.169 204.837 532.45 204.902C531.732 204.967 530.98 205.033 530.196 205.098C529.412 205.229 528.367 205.294 527.06 205.294C526.538 205.294 526.08 205.196 525.688 205C525.296 204.869 525.1 204.608 525.1 204.216C525.1 203.693 525.329 203.367 525.786 203.236C526.309 203.04 526.832 202.844 527.354 202.648C528.334 202.321 529.282 201.962 530.196 201.57C531.176 201.113 531.666 200.231 531.666 198.924V178.344C531.666 176.776 531.307 175.306 530.588 173.934C529.87 172.497 528.922 171.321 527.746 170.406C526.57 169.491 525.264 169.034 523.826 169.034C522.193 169.034 520.658 169.23 519.22 169.622C517.848 170.014 516.542 170.7 515.3 171.68C513.536 172.987 512.654 175.339 512.654 178.736V198.924C512.654 200.231 513.112 201.113 514.026 201.57C514.941 201.962 515.888 202.321 516.868 202.648C517.391 202.844 517.881 203.04 518.338 203.236C518.861 203.367 519.122 203.693 519.122 204.216C519.122 204.608 518.926 204.869 518.534 205C518.208 205.196 517.75 205.294 517.162 205.294C515.856 205.294 514.81 205.229 514.026 205.098C513.308 205.033 512.622 204.967 511.968 204.902C511.315 204.837 510.4 204.804 509.224 204.804C508.114 204.804 507.199 204.837 506.48 204.902C505.827 204.967 505.108 205.033 504.324 205.098C503.606 205.229 502.593 205.294 501.286 205.294Z" fill="black"/>
<path d="M370.115 26.1844C362.862 18.8812 363.039 11.4 370.469 2.85C370.823 2.31562 371 1.60313 370.646 1.06875C370.469 0.35625 369.762 0 369.054 0H290.507C282.546 0 276 6.59062 276 14.6062V95.8312C276 105.806 284.138 114 294.045 114H369.231C370.115 114 371 113.288 371 112.219V27.7875V27.6094C370.823 27.075 370.646 26.5406 370.115 26.1844ZM347.471 67.5094C347.471 68.4 346.763 69.2906 345.702 69.2906H329.78V94.9406C329.78 95.8312 329.073 96.7219 328.011 96.7219H318.458C317.574 96.7219 316.689 96.0094 316.689 94.9406V69.2906H300.767C299.883 69.2906 298.998 68.5781 298.998 67.5094V57.7125C298.998 56.8219 299.706 55.9313 300.767 55.9313H316.689V42.2156C316.689 41.325 317.397 40.4344 318.458 40.4344H328.011C328.896 40.4344 329.78 41.1469 329.78 42.2156V55.9313H345.702C346.587 55.9313 347.471 56.6438 347.471 57.7125V67.5094ZM290.507 25.8281C284.315 25.8281 279.361 20.8406 279.361 14.6062C279.361 8.37187 284.315 3.38438 290.507 3.38438H365.516C360.032 11.2219 359.855 18.7031 365.162 25.8281H290.507Z" fill="black"/>
</svg>
